PathFileType	4	(X/Y/Z)	C:\Users\Basilio\Documents\Thesis Gigler\squatting_fais\c3dfiles\038\SLS_front_pre1\markers_experimental.trc
DataRate	CameraRate	NumFrames	NumMarkers	Units	OrigDataRate	OrigDataStartFrame	OrigNumFrames
200.000000	200.000000	4	61	mm	200.000000	159	1279
Frame#	Time	FHD			LBHD			RBHD			C7			T10			CLAV			LSHO			LUUPA			LMUPA			LDUPA			LLEP			LMEP			LUL			LRFIN			RSHO			RUPA1			RMUPA			RDUPA			RLEP			RMEP			RRAD			RUL			RUFIN			LASI			RASI			USACR			LSACR			RSACR			LTHI1			LTHI2			LTHI3			LTHI4			LLFC			LMFC			LTIB1			LTIB2			LTIB3			LTIB4			LLMAL			LMMAL			LHEE			LMT1			LMT2			LMT5			RTHI			RTHI2			RTHI3			RTHI4			RLFC			RMFC			RTIB1			RTIB2			RTIB3			RTIB4			RLMAL			RMMAL			RHEE			RMT1			RMT2			RMT5			LRAD			
		X1	Y1	Z1	X2	Y2	Z2	X3	Y3	Z3	X4	Y4	Z4	X5	Y5	Z5	X6	Y6	Z6	X7	Y7	Z7	X8	Y8	Z8	X9	Y9	Z9	X10	Y10	Z10	X11	Y11	Z11	X12	Y12	Z12	X13	Y13	Z13	X14	Y14	Z14	X15	Y15	Z15	X16	Y16	Z16	X17	Y17	Z17	X18	Y18	Z18	X19	Y19	Z19	X20	Y20	Z20	X21	Y21	Z21	X22	Y22	Z22	X23	Y23	Z23	X24	Y24	Z24	X25	Y25	Z25	X26	Y26	Z26	X27	Y27	Z27	X28	Y28	Z28	X29	Y29	Z29	X30	Y30	Z30	X31	Y31	Z31	X32	Y32	Z32	X33	Y33	Z33	X34	Y34	Z34	X35	Y35	Z35	X36	Y36	Z36	X37	Y37	Z37	X38	Y38	Z38	X39	Y39	Z39	X40	Y40	Z40	X41	Y41	Z41	X42	Y42	Z42	X43	Y43	Z43	X44	Y44	Z44	X45	Y45	Z45	X46	Y46	Z46	X47	Y47	Z47	X48	Y48	Z48	X49	Y49	Z49	X50	Y50	Z50	X51	Y51	Z51	X52	Y52	Z52	X53	Y53	Z53	X54	Y54	Z54	X55	Y55	Z55	X56	Y56	Z56	X57	Y57	Z57	X58	Y58	Z58	X59	Y59	Z59	X60	Y60	Z60	X61	Y61	Z61	

160	0.795	-257.3034057617188	1766.405639648438	-1059.932861328125	-413.6344604492189	1723.694946289063	-1125.266479492188	-408.9362182617189	1705.978637695313	-980.638366699219	-461.4186401367189	1528.6337890625	-1059.4033203125	-424.5531005859376	1250.450561523438	-1056.607299804688	-318.4281921386719	1527.356811523438	-1070.290283203125	-401.8338317871095	1566.472778320313	-1203.448364257813	-238.8922729492188	1509.784912109375	-1338.77685546875	-211.0236511230469	1543.027954101563	-1311.826538085938	-169.9493560791016	1517.65771484375	-1347.531616210938	-108.6789932250977	1519.599975585938	-1349.427734375	-98.69117736816409	1446.011596679688	-1326.851318359375	186.0081176757813	1528.55615234375	-1326.594116210938	251.6443939208985	1544.028686523438	-1239.116333007813	-381.1672363281251	1549.123413085938	-927.3758544921877	-219.2583312988282	1520.953735351563	-815.7200927734377	-185.239486694336	1534.600830078125	-847.8557739257815	-150.7062225341797	1518.406127929688	-800.695251464844	-77.46480560302736	1517.005859375	-793.0954589843752	-70.32569122314455	1440.831909179688	-815.1542968750002	198.8136749267579	1522.789916992188	-870.9523925781252	209.1545715332032	1532.416625976563	-800.9526977539065	277.4711303710938	1558.8740234375	-873.9671630859377	-240.4113769531251	1066.320068359375	-1154.590698242188	-269.7474365234376	1093.122192382813	-906.8081054687502	-424.7122497558595	1113.2119140625	-1048.815307617188	-433.9263305664064	1081.96240234375	-1075.422241210938	-438.5882873535157	1084.381958007813	-1019.213806152344	-269.7254333496094	740.0360107421876	-1188.543823242188	-240.3698883056641	661.0275878906251	-1174.295654296875	-195.0879516601563	667.9779052734376	-1151.174560546875	-269.5539855957032	613.1019897460939	-1154.476928710938	-266.1521606445313	550.6582031250001	-1142.172729492188	-261.7219848632813	548.4370117187501	-1022.085327148438	-247.1776428222657	364.5981140136719	-1058.701538085938	-290.2470092773438	321.2866210937501	-1122.847534179688	-254.0438842773438	315.8958435058594	-1091.79736328125	-275.5197448730469	239.997787475586	-1059.3642578125	-368.6772155761719	113.0183258056641	-1074.386596679688	-328.7539062500001	128.5057525634766	-1004.04150390625	-417.6932678222657	93.50955200195314	-1017.933044433594	-216.2992248535157	44.94473266601563	-1017.829772949219	-209.7041168212891	46.40222167968751	-1068.704833984375	-257.2403869628907	33.31304550170899	-1113.007934570313	-256.6238098144532	835.0902099609377	-820.5648193359377	-202.6439971923829	796.4717407226565	-810.7059326171877	-172.134750366211	809.0518188476565	-817.2774658203127	-201.6832580566407	710.1176147460939	-817.5950927734377	-140.0174407958985	589.0261840820314	-809.3593750000002	-131.7235412597657	574.9313964843751	-928.468688964844	-37.44786453247071	436.7359619140626	-809.723327636719	-85.39155578613283	339.7368774414063	-766.2695922851564	-42.23113250732423	357.5834655761719	-773.992858886719	-11.95112895965576	311.5950927734376	-795.588317871094	-29.14294052124024	176.2224273681641	-750.8787841796876	-0.2258815467357636	190.2946472167969	-830.8247070312502	-63.09642410278322	105.9864120483399	-810.888854980469	139.1735992431641	186.4913177490235	-800.1353759765627	133.9454650878907	191.2882080078125	-753.3499145507814	103.3366165161133	155.7088012695313	-710.1668090820314	179.6399993896485	1511.990478515625	-1255.181396484375	
161	0.8	-257.2307739257813	1766.359130859375	-1060.51708984375	-413.6318359375001	1723.640014648438	-1125.811767578125	-408.9425659179689	1705.904052734375	-981.375427246094	-461.4720458984376	1528.636962890625	-1060.018310546875	-424.569793701172	1250.374389648438	-1057.099609375	-318.4532165527344	1527.343383789063	-1070.899780273438	-401.8085937500001	1566.3623046875	-1203.946166992188	-238.8922271728516	1509.578369140625	-1339.170043945313	-210.9479980468751	1542.81201171875	-1312.321166992188	-169.8838348388672	1517.44921875	-1348.007568359375	-108.586051940918	1519.376708984375	-1349.911865234375	-98.67957305908206	1445.775024414063	-1327.207153320313	185.9855499267578	1528.338989257813	-1327.064208984375	251.7045898437501	1543.858520507813	-1239.677124023438	-381.3598632812501	1549.13671875	-927.9473266601565	-219.4057312011719	1520.905517578125	-816.3956298828127	-185.3167877197266	1534.470703125	-848.436218261719	-150.7459564208985	1518.463745117188	-801.2404785156252	-77.6507034301758	1516.8662109375	-793.6865234375002	-70.51850891113283	1440.814575195313	-815.7003173828127	198.8484344482422	1522.611328125	-871.4771118164065	209.0756225585938	1532.161987304688	-801.4714355468752	277.4025573730469	1558.6943359375	-874.3681640625002	-240.1868133544922	1066.334350585938	-1154.749755859375	-269.8201599121094	1093.203735351563	-907.132751464844	-424.6554565429689	1113.328735351563	-1049.362060546875	-433.878387451172	1081.771606445313	-1075.830688476563	-438.4811096191407	1084.3388671875	-1019.500244140625	-269.4085388183594	740.0405273437501	-1188.577270507813	-240.0416412353516	661.0388183593751	-1174.205688476563	-194.7963562011719	668.0057983398439	-1150.9814453125	-269.3184509277344	613.1296386718751	-1154.45361328125	-265.9868774414063	550.7095336914064	-1142.10400390625	-261.7469177246094	548.4639282226564	-1022.069030761719	-247.0824584960938	364.6313781738282	-1058.601318359375	-290.1166076660157	321.2877502441407	-1122.795288085938	-254.0030975341797	315.9303283691407	-1091.745361328125	-275.4642639160157	239.9636230468751	-1059.263549804688	-368.1064147949219	113.0822448730469	-1074.120971679688	-328.7031250000001	128.499267578125	-1003.97998046875	-417.6972045898439	93.55853271484376	-1017.873474121094	-216.2413940429688	45.00764083862305	-1017.726684570313	-209.6923828125001	46.24555587768555	-1068.731567382813	-257.2375488281251	33.42425918579102	-1112.993530273438	-256.2517395019532	835.2442626953127	-820.8757324218752	-202.1806335449219	796.9638671875002	-810.9403076171877	-171.843994140625	809.4329833984377	-817.3768310546877	-200.9179687500001	710.5053710937501	-817.8452148437502	-138.781478881836	589.6372680664064	-809.699645996094	-130.1564178466797	575.5340576171876	-928.933776855469	-35.30681228637696	437.7395935058595	-810.0786132812502	-83.03326416015626	340.6178894042969	-766.8189697265626	-39.98139953613282	358.4200744628907	-774.672790527344	-9.630504608154299	313.0464172363282	-795.6939086914065	-25.89501762390137	177.3557281494141	-751.2148437500001	3.241360187530518	191.3717346191407	-831.1828613281252	-59.2657928466797	106.8368759155274	-811.7957763671877	142.4757537841797	188.3647155761719	-800.4600830078127	137.2964019775391	193.1795501708985	-753.5187377929689	106.6744384765625	157.4515686035157	-710.3020629882814	179.687255859375	1511.672729492188	-1255.445068359375	
162	0.805	-257.2460632324219	1766.2646484375	-1061.140014648438	-413.7500305175782	1723.775024414063	-1126.38818359375	-409.0200805664064	1705.852905273438	-981.9688110351565	-461.6773986816407	1528.749877929688	-1060.545043945313	-424.686981201172	1250.388793945313	-1057.4794921875	-318.5759277343751	1527.324096679688	-1071.290161132813	-401.9615783691407	1566.272094726563	-1204.520385742188	-238.9789733886719	1509.347900390625	-1339.637817382813	-211.0070037841797	1542.666381835938	-1312.66748046875	-169.9842376708985	1517.180419921875	-1348.504150390625	-108.5350723266602	1519.187622070313	-1350.363037109375	-98.76638031005862	1445.566772460938	-1327.500122070313	186.0409240722657	1527.984619140625	-1327.608764648438	251.8570861816407	1543.70654296875	-1240.1865234375	-381.5173645019532	1549.159912109375	-928.5500488281252	-219.4454193115235	1520.875610351563	-816.8609619140627	-185.4643707275391	1534.455200195313	-848.9155273437502	-150.7823791503907	1518.449340820313	-801.7133789062502	-77.7776565551758	1516.776123046875	-794.2556762695315	-70.59032440185548	1440.793334960938	-816.0695800781252	198.7379150390626	1522.3974609375	-871.9219360351565	208.9675598144532	1531.938842773438	-801.9650878906252	277.2170715332032	1557.6923828125	-874.320739746094	-240.0835723876954	1066.307983398438	-1154.9375	-269.8933410644532	1093.310180664063	-907.401794433594	-424.6260681152345	1113.329345703125	-1049.815673828125	-433.7774047851564	1081.690185546875	-1076.239868164063	-438.4364318847657	1084.216918945313	-1019.922668457031	-269.0949707031251	740.0718994140626	-1188.596923828125	-239.6016540527344	661.1572265625001	-1174.16015625	-194.4628295898438	667.8086547851564	-1150.838989257813	-269.0755920410157	613.1159057617189	-1154.5	-265.8572387695313	550.6826782226564	-1142.107299804688	-261.6612548828126	548.4759521484376	-1022.124633789063	-246.9317932128907	364.5860595703126	-1058.618408203125	-290.0518798828126	321.3683471679688	-1122.699829101563	-253.9091339111329	315.8504638671876	-1091.622924804688	-275.4184570312501	240.0382537841797	-1059.196899414063	-368.5838928222657	113.2189254760742	-1074.299682617188	-328.6442260742188	128.51806640625	-1003.882507324219	-417.630584716797	93.61798095703126	-1017.858093261719	-216.2412719726563	45.01514053344727	-1017.731262207031	-209.6995391845704	46.33449172973634	-1068.692993164063	-257.2651367187501	33.45778274536134	-1112.955810546875	-255.776351928711	835.3802490234377	-821.2742309570315	-201.5587463378907	797.385192871094	-811.1080322265627	-171.1993103027344	809.9627685546877	-817.518737792969	-199.9830474853516	710.7888793945314	-818.090026855469	-137.4943389892578	590.1006469726564	-809.9918212890627	-128.5943603515625	576.2449340820314	-929.3953857421877	-33.38737487792969	439.0998535156251	-810.1970825195315	-80.40248107910158	341.4230651855469	-767.0554199218751	-37.59239959716798	359.4660034179688	-775.0574340820315	-6.740195751190187	313.9133605957032	-796.3927001953127	-22.67062759399414	178.4362945556641	-751.8311767578126	6.577670097351076	193.1024017333985	-831.698669433594	-53.73709106445314	107.3655853271485	-813.5516357421877	145.73291015625	190.2889404296875	-800.4932250976565	140.8731536865235	194.5221252441407	-753.7175292968751	109.7600479125977	159.1999053955078	-710.5214233398439	179.5474090576172	1511.428344726563	-1256.090209960938	
163	0.8100000000000001	-257.1705322265626	1765.825073242188	-1061.598999023438	-413.7789611816407	1723.686889648438	-1127.067993164063	-409.101287841797	1705.905639648438	-982.5715942382815	-461.7809143066407	1528.709106445313	-1060.985961914063	-424.6928100585939	1250.34521484375	-1057.880126953125	-318.7738647460938	1527.241333007813	-1071.719970703125	-402.0080871582032	1566.126586914063	-1205.125122070313	-238.9428405761719	1509.237670898438	-1340.067138671875	-210.9598541259766	1542.510009765625	-1313.164916992188	-169.9820556640625	1516.946044921875	-1348.82861328125	-108.5272750854492	1518.958374023438	-1350.76025390625	-98.81936645507815	1445.296508789063	-1327.822631835938	186.0320129394532	1527.589721679688	-1328.060791015625	251.8184204101563	1543.567749023438	-1240.667358398438	-381.6377258300782	1549.233032226563	-929.0901489257815	-219.5668029785157	1520.793823242188	-817.318054199219	-185.5068664550782	1534.3994140625	-849.3992919921877	-150.8899688720703	1518.35498046875	-802.3447875976565	-77.82798004150392	1516.749389648438	-794.7587890625002	-70.69207000732423	1440.661010742188	-816.5349731445315	198.6479034423829	1522.249877929688	-872.2861328125002	208.9149627685547	1531.738891601563	-802.383483886719	277.1931457519532	1557.852172851563	-874.9553222656252	-239.8711395263672	1066.388671875	-1155.059326171875	-269.9740600585938	1093.484130859375	-907.6484985351565	-424.5932006835939	1113.327026367188	-1050.174194335938	-433.8173828125001	1081.6064453125	-1076.669555664063	-438.5433654785157	1084.017211914063	-1020.346008300781	-268.7984008789063	740.0156860351564	-1188.67724609375	-239.310043334961	661.1972656250001	-1174.244995117188	-194.2740631103516	667.9562988281251	-1150.866577148438	-268.8028259277344	613.1308593750001	-1154.545288085938	-265.6215515136719	550.6598510742189	-1142.157958984375	-261.5417785644532	548.5187988281251	-1022.124389648438	-246.8388824462891	364.5795593261719	-1058.60400390625	-289.9969177246094	321.3692932128907	-1122.681274414063	-253.8648834228516	315.8889465332032	-1091.704345703125	-275.2928466796876	240.0384674072266	-1059.18017578125	-368.5664672851563	113.1625747680664	-1074.292358398438	-328.5862121582032	128.5773162841797	-1003.953308105469	-417.6461486816407	93.59271240234376	-1017.8515625	-216.2832794189454	44.96747207641602	-1017.622375488281	-209.6355590820313	46.25970840454102	-1068.673461914063	-257.2686767578126	33.49512100219727	-1112.8984375	-255.1620635986329	835.5911865234377	-821.781921386719	-200.9857788085938	797.7261962890627	-811.445983886719	-170.5153503417969	810.5173339843752	-817.8577270507815	-199.1201171875001	711.0036010742189	-818.568298339844	-136.2051544189453	590.6607666015626	-810.434753417969	-127.1191864013672	576.9694824218751	-929.6734008789065	-31.52024269104005	439.9605712890626	-810.587829589844	-78.42893218994142	342.1087646484376	-767.9408569335939	-35.20727157592774	360.3380737304688	-775.5789794921877	-4.248737335205079	315.1655273437501	-796.6335449218752	-19.41800117492676	179.3729095458985	-752.4261474609376	9.076700210571291	194.7944641113282	-832.2625732421877	-52.01663208007814	108.6390914916992	-813.2629394531252	148.8964385986328	192.3112182617188	-800.7522583007815	143.3233489990235	196.8158111572266	-753.7082519531251	112.959716796875	160.7626495361328	-710.9225463867189	179.5094451904297	1511.255004882813	-1256.638061523438	
